<?xml version="1.0" encoding="UTF-8"?>
<svg xmlns="http://www.w3.org/2000/svg" xmlns:inkscape="http://www.inkscape.org/namespaces/inkscape" xmlns:sodipodi="http://sodipodi.sourceforge.net/DTD/sodipodi-0.dtd" width="100" height="90" id="svg2275" viewBox="0 0 100 90" role="img" aria-label="Santander">
  <defs id="defs2277" />
  <g inkscape:label="Capa 1" inkscape:groupmode="layer" id="layer1" transform="translate(231.16471,-263.02882)">
    <g id="g4382" transform="matrix(0.9866125,0,0,0.9866125,-46.512715,-17.145699)">
      <path sodipodi:nodetypes="csssccssssssscccscsssssscsssscsssscc" inkscape:connector-curvature="0" id="path2996" d="M -137.25896,287.82282 C -137.53748,290.28292 -137.42095,292.92088 -136.71336,295.05097 C -135.76046,297.9195 -134.44241,299.98751 -129.58905,306.30164 C -124.46782,312.96425 -122.82885,315.37921 -121.61009,318.83428 C -120.61377,321.65874 -120.59328,323.29079 -121.02061,325.85474 C -116.53369,326.70939 -109.17944,329.09201 -104.25001,332.04797 C -99.677697,334.85994 -96.353472,338.50601 -95.13597,342.04337 C -94.415735,344.13595 -94.445169,347.37943 -95.209416,349.40805 C -95.943377,351.35627 -96.949571,352.98288 -98.434385,354.60939 C -104.33564,361.0738 -116.02077,365.71729 -130.0965,367.19545 C -133.21004,367.52242 -140.84031,367.75504 -143.45708,367.60274 C -162.25976,366.50845 -177.37971,360.01209 -181.68264,351.18412 C -183.47212,347.51278 -183.42843,344.35212 -181.54242,340.72133 C -179.98733,337.7276 -175.72483,334.02779 -170.7124,331.3135 C -165.89035,328.99199 -161.36323,327.2573 -156.51052,325.89182 C -156.27492,329.05968 -150.10112,336.63161 -148.0575,339.31249 C -143.60141,345.1455 -141.83866,347.92758 -140.57931,350.15586 C -139.82291,351.49424 -139.39558,352.34889 -139.60924,354.8965 C -139.60924,354.8965 -137.8945,353.34401 -137.24751,352.02541 C -136.41039,350.3193 -136.11177,348.58786 -136.27268,346.36336 C -136.4665,343.68387 -136.92167,342.04204 -138.20232,339.41932 C -139.44744,336.86937 -141.23206,334.28988 -144.62555,330.12501 C -149.41713,324.24423 -151.19143,321.01357 -151.92346,316.81784 C -152.73601,312.16056 -151.42706,307.21052 -148.74523,304.79932 C -148.16169,304.27467 -147.22288,303.76439 -147.22288,303.76439 C -147.22288,303.76439 -147.303,304.96451 -147.303,306.32834 C -147.303,309.21281 -146.97396,310.71454 -145.86746,312.91182 C -144.4934,315.64041 -142.59156,318.19116 -136.7601,325.13064 C -131.59913,331.27224 -129.99634,334.39239 -129.99634,338.29092 C -129.99634,339.20634 -129.99444,340.17013 -129.99444,340.17013 C -129.99444,340.17013 -128.63114,339.13024 -127.99994,338.17741 C -125.99917,335.15713 -125.6823,330.44576 -127.20538,326.2724 C -128.24947,323.41155 -129.94143,320.808 -134.94397,314.52097 C -140.03657,308.12075 -142.1732,302.99285 -142.1732,298.7196 C -142.1732,294.44635 -141.24551,290.36962 -137.25897,287.82282 L -137.25896,287.82282 z " style="fill:#fe001e;fill-opacity:1;display:inline" />
    </g>
  </g>
</svg>
